<svg width="96" height="96" viewBox="0 0 96 96" fill="none" xmlns="http://www.w3.org/2000/svg">
<rect width="96" height="96" rx="24" fill="#0A84FF"/>
<path fill-rule="evenodd" clip-rule="evenodd" d="M53.2853 16.8C54.5817 16.8 55.6787 15.7 55.6787 14.4C55.6787 13.1 54.5817 12 53.2853 12H42.5152C41.2188 12 40.1219 13.1 40.1219 14.4C40.1219 15.7 41.2188 16.8 42.5152 16.8H43.1136C44.41 16.8 45.4072 17.8 45.4072 19.1V21C45.4072 21.2 45.3075 21.3 45.108 21.3C39.8227 21.8 35.036 23.9 31.1468 27.2C30.9474 27.4 30.5485 27.4 30.349 27.2L29.3518 26C28.4543 25.1 28.4543 23.6 29.3518 22.7L29.8504 22.2C30.7479 21.3 30.7479 19.7 29.8504 18.8C28.9529 17.9 27.3573 17.9 26.4598 18.8L18.7812 26.5C17.8837 27.4 17.8837 29 18.7812 29.9C19.6787 30.8 21.2742 30.8 22.1717 29.9L22.6704 29.4C23.5679 28.5 25.0637 28.5 25.9612 29.4L27.0582 30.5C27.2576 30.7 27.2576 31.1 27.0582 31.3C23.867 35.2 21.7729 40 21.1745 45.3C21.1745 45.5 20.9751 45.6 20.8753 45.6H19.0803C17.7839 45.6 16.7867 44.6 16.7867 43.3V42.7C16.7867 41.4 15.6898 40.3 14.3934 40.3C13.097 40.3 12 41.3 12 42.6V53.4C12 54.7 13.097 55.8 14.3934 55.8C15.6898 55.8 16.7867 54.7 16.7867 53.4V52.8C16.7867 51.5 17.7839 50.5 19.0803 50.5H20.9751C21.1745 50.5 21.2742 50.6 21.2742 50.8C21.7729 56.1 23.867 60.9 27.1579 64.8C27.3573 65 27.3573 65.4 27.1579 65.6L25.9612 66.6C25.0637 67.5 23.5679 67.5 22.6704 66.6L22.1717 66.1C21.2742 65.2 19.6787 65.2 18.7812 66.1C17.8837 67 17.8837 68.6 18.7812 69.5L26.4598 77.2C27.3573 78.1 28.9529 78.1 29.8504 77.2C30.7479 76.3 30.7479 74.7 29.8504 73.8L29.3518 73.3C28.4543 72.4 28.4543 70.9 29.3518 70L30.4488 68.9C30.6482 68.7 31.0471 68.7 31.2465 68.9C35.1357 72.1 39.9224 74.2 45.2078 74.8C45.4072 74.8 45.5069 75 45.5069 75.1V76.9C45.5069 78.2 44.5097 79.2 43.2133 79.2H42.615C41.3186 79.2 40.2216 80.3 40.2216 81.6C40.2216 82.9 41.3186 84 42.615 84H53.385C54.6814 84 55.7784 82.9 55.7784 81.6C55.7784 80.3 54.6814 79.2 53.385 79.2H52.7867C51.4903 79.2 50.4931 78.2 50.4931 76.9V75C50.4931 74.8 50.5928 74.7 50.7922 74.7C56.0776 74.2 60.8643 72.1 64.7535 68.8C64.9529 68.6 65.3518 68.6 65.5512 68.8L66.6482 69.9C67.5457 70.8 67.5457 72.3 66.6482 73.2L66.1496 73.7C65.2521 74.6 65.2521 76.2 66.1496 77.1C67.0471 78 68.6427 78 69.5402 77.1L77.2188 69.4C78.1163 68.5 78.1163 66.9 77.2188 66C76.3213 65.1 74.7258 65.1 73.8283 66L73.3296 66.5C72.4321 67.4 70.9363 67.4 70.0388 66.5L68.9418 65.4C68.7424 65.2 68.7424 64.8 68.9418 64.6C72.133 60.7 74.2271 55.9 74.8255 50.6C74.8255 50.4 75.0249 50.3 75.1247 50.3H76.9197C78.2161 50.3 79.2133 51.3 79.2133 52.6V53.2C79.2133 54.5 80.3103 55.6 81.6067 55.6C82.9031 55.6 84 54.5 84 53.2V42.6C84 41.3 82.9031 40.2 81.6067 40.2C80.3103 40.2 79.2133 41.3 79.2133 42.6V43.2C79.2133 44.5 78.2161 45.5 76.9197 45.5H74.8255C74.626 45.5 74.5263 45.4 74.5263 45.2C74.0277 39.9 71.9335 35.1 68.6427 31.2C68.4432 31 68.4432 30.6 68.6427 30.4L69.7396 29.3C70.6371 28.4 72.133 28.4 73.0305 29.3L73.5291 29.8C74.4266 30.7 76.0222 30.7 76.9197 29.8C77.8172 28.9 77.8172 27.3 76.9197 26.4L69.241 18.7C68.3435 17.8 66.7479 17.8 65.8504 18.7C64.9529 19.6 64.9529 21.2 65.8504 22.1L66.349 22.6C67.2465 23.5 67.2465 25 66.349 25.9L65.2521 27C65.0526 27.2 64.6537 27.2 64.4543 27C60.5651 23.8 55.7784 21.7 50.4931 21.1C50.2936 21.1 50.1939 20.9 50.1939 20.8V19C50.1939 17.7 51.1911 16.7 52.4875 16.7H53.2853V16.8Z" fill="white"/>
</svg>
