<svg width="449" height="769" viewBox="0 0 449 769" fill="none" xmlns="http://www.w3.org/2000/svg">
<path fill-rule="evenodd" clip-rule="evenodd" d="M293.104 59.1655L273.243 78.8879V118.166H293.104V137.888L312.632 118.166V98.6102V78.8879L293.104 59.1655Z" fill="#8D8D92"/>
<path fill-rule="evenodd" clip-rule="evenodd" d="M293.097 452.944V492.388H312.626L331.99 512.111L390.577 492.388V472.666H371.048H351.519L312.626 452.944H293.097Z" fill="#8D8D92"/>
<path fill-rule="evenodd" clip-rule="evenodd" d="M0 452.944V492.388V512.111H58.7523V492.388L39.0579 472.666L19.5292 452.944H0Z" fill="#8D8D92"/>
<path fill-rule="evenodd" clip-rule="evenodd" d="M390.575 0H371.046V59.1674H390.575L410.104 78.8897V59.1674V39.4451V19.7223L390.575 0Z" fill="#8D8D92"/>
<path fill-rule="evenodd" clip-rule="evenodd" d="M312.629 137.89V177.335H331.992V197.057H351.521L410.108 177.335V157.612H390.579H351.521L331.992 137.89H312.629Z" fill="#8D8D92"/>
<path fill-rule="evenodd" clip-rule="evenodd" d="M234.347 374.219H214.818V433.386H234.347V452.941L253.71 433.386V413.664V393.941L234.347 374.219Z" fill="#8D8D92"/>
<path fill-rule="evenodd" clip-rule="evenodd" d="M156.231 512.109V551.386H175.76V571.109H195.289L253.71 551.386V531.831H234.346H195.289L175.76 512.109H156.231Z" fill="#8D8D92"/>
<path fill-rule="evenodd" clip-rule="evenodd" d="M195.294 709.003V728.725V748.447L253.715 768.002V748.447L234.351 728.725L214.823 709.003H195.294Z" fill="#8D8D92"/>
<path fill-rule="evenodd" clip-rule="evenodd" d="M390.58 433.385V472.663V492.385H429.472H449.001V472.663L429.472 452.94L410.109 433.385H390.58Z" fill="#8D8D92"/>
</svg>
