<svg width="16" height="16" viewBox="0 0 16 16" fill="none" xmlns="http://www.w3.org/2000/svg">
<path d="M8.00004 1.33333C4.32004 1.33333 1.33337 4.32 1.33337 8C1.33337 11.68 4.32004 14.6667 8.00004 14.6667C11.68 14.6667 14.6667 11.68 14.6667 8C14.6667 4.32 11.68 1.33333 8.00004 1.33333ZM5.76671 9.84667C5.69337 10.0467 5.50004 10.1733 5.30004 10.1733C5.24004 10.1733 5.18671 10.1667 5.12671 10.14C4.58671 9.94 4.13337 9.54667 3.84671 9.03333C3.18004 7.83333 3.59337 6.26667 4.76004 5.54L6.32004 4.57333C6.89337 4.22 7.56671 4.11333 8.20671 4.28C8.84671 4.44667 9.38671 4.86667 9.71337 5.45333C10.38 6.65333 9.96671 8.22 8.80004 8.94667L8.62671 9.07333C8.40004 9.23333 8.08671 9.18 7.92671 8.96C7.76671 8.73333 7.82004 8.42 8.04004 8.26L8.24671 8.11333C8.99337 7.64667 9.24671 6.68 8.84004 5.94C8.64671 5.59333 8.33337 5.34667 7.96004 5.24667C7.58671 5.14667 7.19337 5.20667 6.85337 5.42L5.28004 6.39333C4.56004 6.84 4.30671 7.80667 4.71337 8.55333C4.88004 8.85333 5.14671 9.08667 5.46671 9.20667C5.72671 9.3 5.86004 9.58667 5.76671 9.84667ZM11.28 10.4333L9.72004 11.4C9.32671 11.6467 8.88671 11.7667 8.44004 11.7667C8.24004 11.7667 8.03337 11.74 7.83337 11.6867C7.19337 11.52 6.65337 11.1 6.33337 10.5133C5.66671 9.31333 6.08004 7.74667 7.24671 7.02L7.42004 6.89333C7.64671 6.73333 7.96004 6.78667 8.12004 7.00667C8.28004 7.23333 8.22671 7.54667 8.00671 7.70667L7.80004 7.85333C7.05337 8.32 6.80004 9.28667 7.20671 10.0267C7.40004 10.3733 7.71337 10.62 8.08671 10.72C8.46004 10.82 8.85337 10.76 9.19337 10.5467L10.7534 9.58C11.4734 9.13333 11.7267 8.16667 11.32 7.42C11.1534 7.12 10.8867 6.88667 10.5667 6.76667C10.3067 6.67333 10.1734 6.38667 10.2734 6.12667C10.3667 5.86667 10.66 5.73333 10.9134 5.83333C11.4534 6.03333 11.9067 6.42667 12.1934 6.94C12.8534 8.14 12.4467 9.70667 11.28 10.4333Z" fill="#8D8D92"/>
</svg>
