<svg width="1278" height="1518" viewBox="0 0 1278 1518" fill="none" xmlns="http://www.w3.org/2000/svg">
<path fill-rule="evenodd" clip-rule="evenodd" d="M747.192 630.823V650.568V670.313L806.039 690.057V670.313L786.368 630.823H766.697H747.192Z" fill="#8D8D92"/>
<path fill-rule="evenodd" clip-rule="evenodd" d="M983.09 532.265L963.419 552.01V591.499L983.09 611.078H1002.76V591.499V552.01L983.09 532.265Z" fill="#8D8D92"/>
<path fill-rule="evenodd" clip-rule="evenodd" d="M904.572 690.063V709.808H924.244V729.385L943.749 749.131L1002.77 709.808V690.063H983.094H943.749H924.244H904.572Z" fill="#8D8D92"/>
<path fill-rule="evenodd" clip-rule="evenodd" d="M0 1025.22V1044.8H19.5047V1064.54L39.1763 1084.29L98.1916 1044.8V1025.22H78.52H39.1763H19.5047H0Z" fill="#8D8D92"/>
<path fill-rule="evenodd" clip-rule="evenodd" d="M39.1783 1222.34V1242.08V1261.66H98.1931V1242.08L78.5217 1222.34H58.8502H39.1783Z" fill="#8D8D92"/>
<path fill-rule="evenodd" clip-rule="evenodd" d="M432.612 749.126L412.941 768.871V808.36L432.612 827.937H452.284V788.615V768.871L432.612 749.126Z" fill="#8D8D92"/>
<path fill-rule="evenodd" clip-rule="evenodd" d="M353.763 887.172V926.66H373.601V946.237H393.273L452.288 926.66V906.916H432.616H393.273L373.601 887.172H353.763Z" fill="#8D8D92"/>
<path fill-rule="evenodd" clip-rule="evenodd" d="M275.24 1123.78L255.568 1143.36V1182.84H275.24V1202.59L294.744 1182.84V1163.1V1143.36L275.24 1123.78Z" fill="#8D8D92"/>
<path fill-rule="evenodd" clip-rule="evenodd" d="M196.552 1261.65V1301.14H216.224V1320.89H235.896L294.744 1301.14V1281.4H275.239H235.896L216.224 1261.65H196.552Z" fill="#8D8D92"/>
<path fill-rule="evenodd" clip-rule="evenodd" d="M235.894 1458.93V1478.51V1498.25L294.743 1518V1498.25L275.237 1478.51L255.566 1458.93H235.894Z" fill="#8D8D92"/>
<path fill-rule="evenodd" clip-rule="evenodd" d="M432.615 1202.58V1222.33V1242.07H471.792H491.464V1222.33L471.792 1202.58H452.287H432.615Z" fill="#8D8D92"/>
<path fill-rule="evenodd" clip-rule="evenodd" d="M1041.94 98.5513L1022.43 118.296L1041.94 138.041L1081.28 157.785H1101.12V118.296L1081.28 98.5513H1041.94Z" fill="#8D8D92"/>
<path fill-rule="evenodd" clip-rule="evenodd" d="M1258.33 0V19.7444V59.2331V78.811H1278V59.2331V19.7444L1258.33 0Z" fill="#8D8D92"/>
<path fill-rule="evenodd" clip-rule="evenodd" d="M1199.31 157.791V177.368V197.113H1218.98L1278 177.368V157.791H1258.33H1238.66H1218.98H1199.31Z" fill="#8D8D92"/>
<path fill-rule="evenodd" clip-rule="evenodd" d="M1002.76 177.365L983.092 197.109V236.599L1002.76 256.343H1022.44V216.854V197.109L1002.76 177.365Z" fill="#8D8D92"/>
<path fill-rule="evenodd" clip-rule="evenodd" d="M609.322 532.265V552.01V571.754L648.832 591.499L688.176 552.01V532.265H668.504H648.832H629.327H609.322Z" fill="#8D8D92"/>
<path fill-rule="evenodd" clip-rule="evenodd" d="M452.282 808.358V847.68H471.787L491.459 867.425L550.475 847.68V827.935V808.358H530.803H491.459H471.787H452.282Z" fill="#8D8D92"/>
<path fill-rule="evenodd" clip-rule="evenodd" d="M491.46 1242.07V1261.65V1281.4L511.133 1301.14L570.148 1261.65V1242.07H550.477H530.805H511.133H491.46Z" fill="#8D8D92"/>
<path fill-rule="evenodd" clip-rule="evenodd" d="M845.387 650.568V690.057V709.801H904.569V690.057L884.897 670.312L864.892 650.568H845.387Z" fill="#8D8D92"/>
<path fill-rule="evenodd" clip-rule="evenodd" d="M1002.76 670.312V690.057V709.801L1061.61 729.379V709.801L1041.94 670.312H1022.43H1002.76Z" fill="#8D8D92"/>
<path fill-rule="evenodd" clip-rule="evenodd" d="M19.5043 1202.58L0 1222.33V1261.65L19.5043 1281.4H39.1754V1261.65V1222.33L19.5043 1202.58Z" fill="#8D8D92"/>
</svg>
